<svg height="718" width="1440" xmlns="http://www.w3.org/2000/svg" xmlns:xlink="http://www.w3.org/1999/xlink"><linearGradient id="a"><stop offset="0" stop-color="#fff" stop-opacity="0"/><stop offset="1" stop-color="#c9f0ff"/></linearGradient><linearGradient id="b" x1="137.029%" x2="50%" xlink:href="#a" y1="129.104%" y2="50%"/><linearGradient id="c" x1="-160.796%" x2="107.047%" y1="-224.453%" y2="70.702%"><stop offset="0" stop-color="#fff" stop-opacity="0"/><stop offset="1" stop-color="#def5fe"/></linearGradient><linearGradient id="d" x1="-347.113%" x2="65.921%" xlink:href="#a" y1="338.405%" y2="50%"/><linearGradient id="e" x1="-97.01%" x2="65.921%" xlink:href="#a" y1="148.218%" y2="50%"/><linearGradient id="f" x1="-19.87%" x2="117.594%" xlink:href="#a" y1="-6.768%" y2="100%"/><linearGradient id="g" x1="119.936%" x2="0%" xlink:href="#a" y1="0%" y2="84.589%"/><linearGradient id="h" x1="-89.026%" x2="137.149%" xlink:href="#a" y1="77.649%" y2="17.758%"/><g fill="none" fill-rule="evenodd" transform="translate(0 -20)"><rect fill="url(#b)" height="38" rx="3" transform="matrix(.70710678 .70710678 -.70710678 .70710678 705.462316 -515.396692)" width="38" x="955.87" y="574.87"/><rect fill="url(#c)" height="17" rx="1" transform="matrix(.70710678 .70710678 -.70710678 .70710678 412.444413 -256.644895)" width="17" x="507.521" y="361.042"/><path d="m1331.962 291.251 12.264 24.528a2 2 0 0 1 -1.789 2.894h-24.528a2 2 0 0 1 -1.788-2.894l12.264-24.528a2 2 0 0 1 3.577 0z" opacity=".543" stroke="url(#d)" stroke-width="10" transform="matrix(.8660254 .5 -.5 .8660254 329.795891 -624.46902)"/><path d="m844.672 172.644 18.41 36.82a5 5 0 0 1 -4.472 7.236h-36.82a5 5 0 0 1 -4.472-7.236l18.41-36.82a5 5 0 0 1 8.944 0z" opacity=".543" stroke="url(#e)" stroke-width="10" transform="matrix(.8660254 .5 -.5 .8660254 207.665456 -394.618032)"/><path d="m0 428c38.952-92.623 95.85-125.954 170.692-99.992 112.265 38.943 152.14 91.606 212.59 0 15.672-23.751 9.865-74.51-29.279-76.526s-9.251-46.316 58.144-55.007-18.096-70.062-69.395-87.898c-53.275-18.522 15.159-67.282 20.444-85.903 8.58-30.232-112.485-30.232-363.196 0v405.326z" fill="url(#f)"/><path d="m1440 738c-87.498-1.025-152.016-21.183-193.555-60.474-62.308-58.935-61.792-186.387-194.636-179.419-132.843 6.968-274.802-21.538-224.4-101.821 50.402-80.284 168.127-70.332 196.264-201.192 28.136-130.86-202.236 27.165-240.286-59.848-14.858-33.98 20.409-38.561-34.273-76.79-18.153-12.69-26.931-31.08-23.312-38.228 1.744-3.445 7.924 1.578 14.37 0 20.466-5.013 63.76 0 107.641 0h592.187z" fill="url(#g)"/><path d="m520.396 612.23c8.7-1.82 11.409 7.778 27.275 7.778s29.975-9.065 49.61-1.072c19.636 7.994 35.523 32.21 15.406 27.541-11.882-2.758-26.578-11.167-46.816 4.842-20.239 16.008-32.349-14.56-47.511-9.869-15.163 4.692-6.735-27.386 2.036-29.22z" fill="url(#h)"/></g></svg>